<?xml version="1.0" encoding="UTF-8" standalone="no"?>
<!-- Created with Inkscape (http://www.inkscape.org/) -->

<svg
   xmlns:dc="http://purl.org/dc/elements/1.1/"
   xmlns:cc="http://creativecommons.org/ns#"
   xmlns:rdf="http://www.w3.org/1999/02/22-rdf-syntax-ns#"
   xmlns:svg="http://www.w3.org/2000/svg"
   xmlns="http://www.w3.org/2000/svg"
   xmlns:sodipodi="http://sodipodi.sourceforge.net/DTD/sodipodi-0.dtd"
   xmlns:inkscape="http://www.inkscape.org/namespaces/inkscape"
   id="svg2"
   version="1.1"
   inkscape:version="0.91 r13725"
   width="480"
   height="160"
   viewBox="0 0 480 160"
   sodipodi:docname="chesspieces.svg">
  <metadata
     id="metadata8">
    <rdf:RDF>
      <cc:Work
         rdf:about="">
        <dc:format>image/svg+xml</dc:format>
        <dc:type
           rdf:resource="http://purl.org/dc/dcmitype/StillImage" />
        <dc:title></dc:title>
      </cc:Work>
    </rdf:RDF>
  </metadata>
  <defs
     id="defs6" />
  <sodipodi:namedview
     pagecolor="#ffffff"
     bordercolor="#666666"
     borderopacity="1"
     objecttolerance="10"
     gridtolerance="10"
     guidetolerance="10"
     inkscape:pageopacity="0"
     inkscape:pageshadow="2"
     inkscape:window-width="1855"
     inkscape:window-height="1056"
     id="namedview4"
     showgrid="false"
     inkscape:zoom="3.7948064"
     inkscape:cx="171.20916"
     inkscape:cy="90.540722"
     inkscape:window-x="65"
     inkscape:window-y="24"
     inkscape:window-maximized="1"
     inkscape:current-layer="svg2" />
  <path
     style="fill:#000000"
     d="m 18.164922,145.9375 c 1.099109,-6.60024 4.370502,-13.15613 8.477248,-16.98844 2.996764,-2.79651 3.055002,-3.11852 1.316535,-7.27926 -1.950079,-4.66719 -1.37558,-8.41584 1.85234,-12.08668 1.119997,-1.27367 1.84943,-3.87362 1.641885,-5.85223 C 31.017787,99.58247 34.877531,95 38.806819,95 c 3.782298,0 9.100744,5.80648 8.260717,9.01874 -0.414391,1.58463 0.279338,3.85638 1.747654,5.72305 2.698526,3.43062 3.135362,8.60303 1.10324,13.06306 -1.151123,2.52644 -0.761639,3.52677 2.874101,7.38179 C 57.056432,134.70769 60,141.96541 60,147.95752 60,151.25 60,151.25 38.640127,151.25 c -21.359872,0 -21.359872,0 -20.475205,-5.3125 z m 408.459118,3.92998 c -6.43808,-1.86187 -5.90288,-3.33039 1.79662,-4.92967 6.92849,-1.43914 21.09198,-1.03562 25.64184,0.73053 9.37432,3.63888 -15.96595,7.51692 -27.43846,4.19913 z M 90.52066,148.85416 c -2.830766,-2.8317 3.291978,-6.34586 11.10066,-6.37122 2.88952,-0.01 6.58009,-0.37214 8.20125,-0.80612 2.88276,-0.7717 2.86215,-0.82496 -0.9375,-2.42258 -8.12015,-3.41428 -4.78294,-4.87924 11.11493,-4.87924 15.89787,0 19.23507,1.46496 11.11494,4.87924 -3.79967,1.59762 -3.82027,1.65088 -0.9375,2.42258 1.62116,0.43398 5.49427,0.79673 8.60692,0.80612 5.71166,0.0172 11.70833,2.914 10.92113,5.2756 -0.40745,1.22235 -57.992495,2.28836 -59.18483,1.09562 z M 186.25,147.43792 c 0,-3.5302 2.86248,-8.70885 6.875,-12.43792 4.03979,-3.75441 6.875,-8.91285 6.875,-12.50851 0,-2.43451 -0.38829,-2.32158 -5.159,1.50043 -2.83745,2.27319 -7.07495,5.9612 -9.41666,8.19558 -4.76825,4.54967 -4.63834,4.50022 -7.6288,2.90375 -1.1938,-0.63731 -3.16768,-1.46831 -4.38639,-1.84665 -5.54719,-1.72209 -4.23709,-9.12796 4.09065,-23.12406 3.57612,-6.01026 6.2502,-12.02673 6.2502,-14.0625 0,-4.19996 1.26331,-4.49642 4.39839,-1.0322 2.28586,2.52585 2.28586,2.52585 5.57162,-0.62211 C 197.06036,91.20347 200,91.89217 200,95.875 c 0,0.91547 1.50092,1.66809 3.4375,1.72368 1.89062,0.0543 2.73437,0.38241 1.875,0.72917 -2.43167,0.9812 -1.83786,2.92215 0.894,2.92215 3.72585,0 11.40359,7.43122 14.19316,13.73743 1.84748,4.1765 2.63757,9.37341 3.08809,20.31249 C 224.09317,150 224.09317,150 205.17159,150 186.93052,150 186.25,149.90785 186.25,147.43792 Z m 1.75701,-42.62882 c -1.14502,-1.8527 -4.26235,1.40589 -4.21542,4.40646 0.041,2.61956 0.0784,2.61531 2.4933,-0.28327 1.34844,-1.61848 2.1234,-3.47392 1.72212,-4.12319 z m 38.42713,34.63206 C 226.25245,126.1095 224.59926,118.68481 219.87874,110 c -2.05527,-3.78125 -2.80468,-5.75 -1.66539,-4.375 4.12167,4.97439 8.08659,15.47034 9.26065,24.51486 1.51412,11.66418 1.59254,19.86014 0.19002,19.86014 -0.59728,0 -1.15073,-4.75148 -1.22988,-10.55884 z M 255,146.5625 c 0,-3.4375 0,-3.4375 25,-3.4375 25,0 25,0 25,3.4375 C 305,150 305,150 280,150 c -25,0 -25,0 -25,-3.4375 z m 84.0625,2.60965 c -3.56574,-1.43881 -1.37086,-4.0477 4.09494,-4.86735 6.7768,-1.01625 37.60886,-0.20516 38.83565,1.02163 0.47473,0.47473 0.15163,1.7205 -0.71801,2.76836 -1.30009,1.56651 -5.05394,1.88767 -21.11563,1.80652 -10.74395,-0.0542 -20.23758,-0.3824 -21.09695,-0.72916 z M 418.75,142.586 c 0,-2.552 -0.51161,-2.44589 16.25693,-3.37181 14.33732,-0.79168 23.74307,0.7941 23.74307,4.00297 0,1.54416 -0.48358,1.612 -2.76964,0.38853 -4.47835,-2.39673 -24.41305,-2.84244 -31.29286,-0.69965 -5.51288,1.71704 -5.9375,1.69415 -5.9375,-0.32004 z m -80.13512,-1.05014 c 1.76938,-3.16172 42.63512,-2.91015 42.63512,0.26246 0,1.0366 -3.00513,1.16578 -10.9375,0.47013 -6.01563,-0.52755 -15.81965,-0.53095 -21.78673,-0.007 -8.90649,0.78122 -10.68119,0.6514 -9.91089,-0.72504 z m -78.57513,-1.84836 c 0.0219,-1.54688 0.86562,-3.90439 1.875,-5.23891 1.29114,-1.70703 1.83525,-5.69098 1.83525,-13.4375 C 263.75,110 263.75,110 280,110 c 16.25,0 16.25,0 16.25,11.01109 0,7.74652 0.54411,11.73047 1.83525,13.4375 1.00937,1.33452 1.85312,3.69203 1.875,5.23891 0.0396,2.80114 -0.041,2.8125 -19.96025,2.8125 -19.91919,0 -19.99984,-0.0112 -19.96025,-2.8125 z M 297.5,136.25 c 0,-0.77381 -6.66666,-1.25 -17.5,-1.25 -10.83334,0 -17.5,0.47619 -17.5,1.25 0,0.77381 6.66666,1.25 17.5,1.25 10.83334,0 17.5,-0.47619 17.5,-1.25 z M 295,132.5 c 0,-0.76389 -5.83334,-1.25 -15,-1.25 -9.16666,0 -15,0.48611 -15,1.25 0,0.76389 5.83334,1.25 15,1.25 9.16666,0 15,-0.48611 15,-1.25 z m 46.25,4.49299 c 0,-0.6226 -1.32729,-2.8726 -2.94951,-5 -2.0912,-2.7424 -3.41785,-7.01682 -4.55889,-14.68863 -1.3904,-9.34839 -2.00953,-11.00296 -4.55049,-12.1607 -4.85117,-2.21034 -3.08362,-8.18763 2.20025,-7.44053 2.47269,0.34962 3.00047,1.17109 3.08189,4.79687 0.0606,2.69641 1.73915,6.97484 4.375,11.15111 4.27675,6.77612 4.27675,6.77612 4.64042,-3.47561 0.28104,-7.92269 -0.0734,-10.68877 -1.56002,-12.17543 -2.46259,-2.46258 -0.45888,-6.75007 3.15456,-6.75007 3.13893,0 4.51364,3.35693 2.61785,6.39256 -1.1674,1.8693 -0.70617,4.16876 2.41135,12.02192 2.12016,5.34079 4.00747,9.86514 4.19399,10.05412 0.18651,0.18898 1.30533,-4.52146 2.48621,-10.46765 1.53235,-7.71584 1.76205,-11.19629 0.80224,-12.1561 -3.5334,-3.5334 -0.26749,-9.29197 4.28015,-7.54688 2.16931,0.83244 2.50244,5.5746 0.53015,7.54688 -0.95981,0.95981 -0.73011,4.44026 0.80224,12.1561 1.18089,5.94619 2.33707,10.62125 2.5693,10.38903 0.23221,-0.23222 2.10389,-4.50032 4.15927,-9.48469 3.10957,-7.54076 3.48269,-9.46978 2.22217,-11.4882 -2.82819,-4.52867 2.16363,-9.16676 5.8733,-5.4571 1.89773,1.89774 1.90555,2.32502 0.0931,5.0911 -1.46854,2.24128 -1.88452,5.48194 -1.61401,12.57377 0.36445,9.55427 0.36445,9.55427 4.6412,2.7772 2.63565,-4.17653 4.31444,-8.45585 4.375,-11.15206 0.0814,-3.62578 0.6092,-4.44724 3.08189,-4.79687 5.29835,-0.74914 7.04806,5.23171 2.17951,7.44997 -2.58413,1.17741 -3.16511,2.7677 -4.55583,12.47023 -0.95077,6.63318 -2.3448,11.74383 -3.45458,12.66487 -1.33534,1.10823 -6.84232,1.43474 -19.50668,1.15656 -10.9926,-0.24145 -18.82435,0.13199 -20.77106,0.99042 -2.48133,1.09417 -1.00086,1.25083 7.1875,0.76055 16.0943,-0.96367 30.11274,0.42315 29.46122,2.91453 -0.45491,1.73964 -3.07831,2.01474 -19.21277,2.01474 -10.32555,0 -18.68594,-0.50648 -18.68594,-1.13201 z m 77.5,-0.92769 c 0,-1.36575 -1.96875,-4.33995 -4.375,-6.60934 -2.40625,-2.26938 -4.36004,-4.90348 -4.34174,-5.85356 0.0183,-0.95007 0.92942,-0.32115 2.0247,1.3976 3.81638,5.98871 8.6029,8.91211 12.29413,7.50871 5.29119,-2.0117 23.63946,-1.54194 29.37261,0.75201 6.94125,2.77734 6.44566,4.62823 -0.9122,3.40688 -7.96413,-1.322 -23.59464,-1.00944 -29.37815,0.58747 -4.2745,1.18024 -4.68435,1.07614 -4.68435,-1.18977 z m -312.5,-5.36653 c 0,-0.99067 0.59914,-2.17152 1.33143,-2.62409 0.88874,-0.54928 0.70986,-1.50969 -0.538,-2.88857 -5.9803,-6.60815 -4.55718,-15.26095 3.70626,-22.53472 3.90972,-3.44147 4.98642,-5.13044 4.18431,-6.56372 C 113.52164,93.56393 116.84522,88.75 120,88.75 c 3.131,0 6.4781,4.81439 5.08176,7.30949 -0.78298,1.39913 0.4185,3.24469 4.54645,6.9836 7.0722,6.40569 8.7877,14.66326 4.3057,20.7255 -1.57126,2.12523 -2.15349,3.9117 -1.42216,4.36367 0.68104,0.4209 1.23825,1.57584 1.23825,2.56651 0,1.45914 -2.6114,1.80123 -13.75,1.80123 -11.1386,0 -13.75,-0.34209 -13.75,-1.80123 z M 130,126.25 c 0,-0.72916 -4.16666,-1.25 -10,-1.25 -5.83333,0 -10,0.52084 -10,1.25 0,0.72916 4.16667,1.25 10,1.25 5.83334,0 10,-0.52084 10,-1.25 z m -8.75,-10.47921 c 0,-0.95107 1.26563,-2.10711 2.8125,-2.56899 2.8125,-0.83978 2.8125,-0.83978 0,-2.21181 -1.54687,-0.75461 -2.8125,-2.12982 -2.8125,-3.05601 0,-0.92619 -0.5625,-1.68398 -1.25,-1.68398 -0.6875,0 -1.25,0.75779 -1.25,1.68398 0,0.92619 -1.26562,2.3014 -2.8125,3.05601 -2.8125,1.37203 -2.8125,1.37203 0,2.21181 1.54688,0.46188 2.8125,1.61792 2.8125,2.56899 0,0.95106 0.5625,1.72921 1.25,1.72921 0.6875,0 1.25,-0.77815 1.25,-1.72921 z m 330.625,14.16433 c -2.0625,-0.5828 -5.29688,-1.37985 -7.1875,-1.7712 -4.9766,-1.03014 -4.4343,-5.10277 1.42116,-10.67295 9.58798,-9.12082 24.15438,-6.17107 20.24913,4.10052 -1.11697,2.93785 -8.22193,9.78401 -9.8912,9.5309 -0.46288,-0.0702 -2.52909,-0.60445 -4.59159,-1.18727 z m -35.40895,-4.25503 c -2.18133,-2.48439 -3.96605,-5.36683 -3.96605,-6.4054 0,-2.6259 5.66371,-8.03047 8.38069,-7.99724 4.19571,0.0513 12.4821,4.66784 15.18047,8.45735 4.01785,5.64255 3.48429,7.32316 -2.62366,8.26395 -2.92188,0.45005 -7.0434,1.1288 -9.15895,1.50834 -3.27351,0.58729 -4.43721,0.0172 -7.8125,-3.827 z m 20.56374,-9.07795 c -2.7873,-3.70289 -11.23524,-7.78621 -16.18844,-7.82469 -2.26422,-0.0176 -4.84626,1.28516 -7.1875,3.6264 -2.00963,2.00961 -3.65385,3.10904 -3.65385,2.44318 0,-0.66587 1.43315,-2.64382 3.18479,-4.39546 3.26211,-3.26211 11.2379,-3.8044 17.12771,-1.16455 1.55747,0.69807 2.1875,0.42954 2.1875,-0.93238 0,-1.05205 1.40625,-3.58406 3.125,-5.62668 C 439.12885,98.56387 439.70531,95 436.875,95 435.84375,95 435,94.4375 435,93.75 c 0,-0.6875 0.79687,-1.25 1.77084,-1.25 0.97395,0 2.09895,-0.70312 2.5,-1.5625 0.58332,-1.25 0.875,-1.25 1.45832,0 0.40105,0.85938 1.52605,1.5625 2.5,1.5625 0.97396,0 1.77084,0.5625 1.77084,1.25 0,0.6875 -0.84375,1.25 -1.875,1.25 -2.83031,0 -2.25385,3.56387 1.25,7.72796 1.71875,2.04262 3.125,4.53424 3.125,5.53693 0,1.41507 0.5411,1.53348 2.41782,0.52909 6.26952,-3.35534 20.08218,1.10557 20.08218,6.48571 0,0.7191 -1.14938,-0.15373 -2.55416,-1.93964 -5.14715,-6.54354 -14.85242,-5.55153 -23.68666,2.42111 -4.38418,3.95657 -4.38418,3.95657 -6.72939,0.84098 z m -176.0394,-8.78964 c -1.02819,-1.23914 2.92597,-1.5625 19.10656,-1.5625 14.34475,0 20.01045,0.3926 19.08085,1.3222 -2.00636,2.00636 -36.54169,2.22368 -38.18741,0.2403 z m -2.42483,-8.125 c 0.41729,-4.3756 0.7205,-4.6875 4.557,-4.6875 2.50019,0 4.39178,0.73439 4.82948,1.875 0.39572,1.03125 1.80197,1.875 3.125,1.875 1.32301,0 2.72926,-0.84375 3.125,-1.875 C 274.67822,95.63407 276.63892,95 280,95 c 3.36108,0 5.32177,0.63407 5.79796,1.875 0.39574,1.03125 1.80199,1.875 3.125,1.875 1.32303,0 2.72928,-0.84375 3.125,-1.875 0.4377,-1.14061 2.32929,-1.875 4.82948,-1.875 3.8365,0 4.13971,0.3119 4.557,4.6875 0.44702,4.6875 0.44702,4.6875 -21.43444,4.6875 -21.88146,0 -21.88146,0 -21.43444,-4.6875 z M 17.934135,65.60346 c 0.904418,-6.59845 3.610146,-12.4007 7.945601,-17.0388 2.545853,-2.72357 2.852909,-3.76144 1.732299,-5.85532 C 25.586531,38.92465 25.959668,34.86652 28.754673,30.28229 30.127102,28.0313 31.25,24.60285 31.25,22.66352 31.25,18.33891 34.6967,15 39.160926,15 43.841094,15 47.5,19.08107 47.5,24.30123 c 0,2.36568 0.507112,4.61464 1.126917,4.9977 2.57846,1.59358 3.587836,7.7297 2.021154,12.28687 -1.453486,4.22791 -1.347994,4.74382 1.516536,7.4166 4.064715,3.79262 7.293167,10.38035 8.299402,16.9351 0.815535,5.3125 0.815535,5.3125 -21.244142,5.3125 -22.059677,0 -22.059677,0 -21.285732,-5.64654 z M 57.527689,63.90142 C 56.391687,57.6891 52.215552,50.9392 48.167727,48.77287 44.510029,46.81533 44.276205,45.90681 46.875,43.75 49.685771,41.41727 49.274473,33.36211 46.202645,30.58214 44.295,28.85575 43.851903,27.38165 44.438209,24.71221 45.376658,20.43948 43.313044,17.5 39.375,17.5 c -3.769892,0 -6.058501,3.00687 -5.301735,6.96564 0.438174,2.29216 -0.245005,4.09246 -2.352905,6.20036 -3.578395,3.5784 -3.812668,8.7909 -0.583886,12.99131 2.324688,3.02425 2.320642,3.03921 -1.522712,5.62925 -4.629456,3.11979 -7.869096,8.41885 -9.033442,14.77594 -0.858548,4.6875 -0.858548,4.6875 18.487724,4.6875 19.346271,0 19.346271,0 18.459645,-4.84858 z M 205.3125,70.28154 c -15.01207,-0.25384 -20.31199,-0.74311 -20.31056,-1.875 0.002,-2.44145 3.99056,-9.07672 8.95975,-14.90932 5.39955,-6.33774 7.91284,-13.35666 4.0201,-11.22703 -1.29624,0.70914 -5.59813,4.1959 -9.55976,7.74835 -7.20298,6.45901 -7.20298,6.45901 -12.5,4.78273 -4.83277,-1.52935 -5.33048,-2.07781 -5.67867,-6.2577 -0.37692,-4.52501 4.58128,-16.08646 10.86398,-25.33243 1.68007,-2.47249 2.26046,-4.80964 1.78488,-7.1875 -0.83323,-4.16618 2.26424,-4.90075 6.08496,-1.44305 2.15641,1.95153 2.48631,1.90464 5.31838,-0.75596 C 197.35997,10.94576 200,11.21231 200,14.40059 c 0,0.97603 2.1325,2.32727 4.8112,3.04857 15.03786,4.04928 22.13844,16.15037 23.56714,40.16407 0.57092,9.59631 0.36741,12.09033 -1.02005,12.5 -0.95331,0.28147 -10.87391,0.35721 -22.04579,0.16831 z M 224.63267,55.9375 C 223.22476,33.77834 217.12435,23.20846 203.91402,20.03935 199.60431,19.00547 197.5,17.86284 197.5,16.55659 c 0,-1.7133 -0.27135,-1.69849 -2.28593,0.12467 -2.96001,2.67878 -6.35921,2.63172 -8.5785,-0.11876 -1.63415,-2.0253 -1.71008,-1.98669 -1.02415,0.52077 0.50435,1.84365 -0.61668,4.83662 -3.51146,9.375 -7.11572,11.15589 -9.7684,17.23112 -9.3598,21.43599 0.40205,4.13739 4.75984,6.72139 4.75984,2.82239 0,-1.08166 0.90935,-1.96665 2.02079,-1.96665 1.36437,0 1.82061,0.76548 1.40453,2.35655 -0.89347,3.41668 17.4978,-12.14666 19.40248,-16.41905 2.319,-5.20175 3.4579,-4.13114 2.65945,2.5 -1.14875,9.54036 -2.68478,13.06282 -8.53565,19.57419 C 184.80174,67.50091 184.80071,67.5 206.55067,67.5 c 18.81664,0 18.81664,0 18.082,-11.5625 z M 183.2509,30.20371 c -0.35565,-0.57546 0.23875,-2.31036 1.32089,-3.85534 2.51012,-3.58371 5.08852,-1.63495 3.00003,2.26743 -1.46736,2.74179 -3.21162,3.38279 -4.32092,1.58791 z m 160.28174,40.14138 c -6.55353,-0.69163 -8.39823,-3.3199 -5.66847,-8.07624 2.74183,-4.77734 2.68885,-6.60485 -0.31182,-10.75697 -1.38073,-1.91054 -3.21325,-7.9148 -4.204,-13.77442 -1.34334,-7.94488 -2.38444,-10.82747 -4.42735,-12.25838 -3.15639,-2.21082 -3.46116,-5.7672 -0.69122,-8.06604 2.87398,-2.38519 6.11668,0.10833 6.27022,4.82156 0.0688,2.11043 2.0375,6.82327 4.375,10.47297 4.25,6.63582 4.25,6.63582 4.6203,-2.56109 0.2794,-6.93957 -0.10413,-9.72111 -1.5625,-11.33262 -2.62451,-2.90005 -2.43048,-5.95956 0.47665,-7.5154 4.9012,-2.62304 8.57152,1.4309 6.13569,6.77697 -1.1257,2.47067 -0.84653,4.41518 1.47846,10.29769 4.08826,10.34382 4.39265,10.32469 6.52867,-0.41013 1.67414,-8.41356 1.69009,-9.89919 0.12313,-11.46619 -3.68333,-3.68332 1.10965,-9.7539 5.51212,-6.98143 2.88832,1.81893 3.36613,4.75244 1.13713,6.98143 -1.56699,1.567 -1.55346,3.04047 0.10438,11.37237 1.04757,5.26466 2.31903,9.31603 2.82547,9.00303 2.52902,-1.56302 6.42955,-15.4426 5.0593,-18.00294 -2.75574,-5.14919 3.13776,-10.1677 7.1862,-6.11926 2.029,2.02899 1.88625,4.18518 -0.43045,6.50187 -1.46498,1.46498 -1.84173,4.11995 -1.5625,11.01099 0.36795,9.08053 0.36795,9.08053 4.61795,2.44471 2.3375,-3.6497 4.30625,-8.36254 4.375,-10.47296 0.15354,-4.71325 3.39624,-7.20676 6.27023,-4.82157 2.76993,2.29885 2.46516,5.85522 -0.69123,8.06604 -2.04291,1.43092 -3.08401,4.3135 -4.42735,12.25838 -1.03529,6.12299 -2.8119,11.84657 -4.32746,13.94143 -1.83806,2.54062 -2.32744,4.50079 -1.71641,6.875 2.33175,9.0603 1.70643,10.73275 -4.35778,11.65518 -5.87044,0.89296 -24.79931,0.97165 -32.71736,0.13602 z m 36.21353,-3.4246 c 2.12918,-2.12918 -4.3943,-3.13221 -20.37117,-3.13221 -20.51005,0 -27.37361,2.0868 -13.75,4.18055 5.19581,0.79852 33.13265,-0.0598 34.12117,-1.04834 z M 377.6875,60.9375 C 376.599,59.849 371.23334,59.375 360,59.375 c -11.23334,0 -16.599,0.474 -17.6875,1.5625 -1.25,1.25 2.2875,1.5625 17.6875,1.5625 15.4,0 18.9375,-0.3125 17.6875,-1.5625 z m -0.42741,-5.09514 c 0.51409,-2.52894 -10.44848,-3.90944 -23.78562,-2.99529 -10.53223,0.72189 -11.64438,1.10378 -10.6633,3.66152 0.98184,2.55972 33.92264,1.92266 34.44892,-0.66623 z m 3.50506,-5.95867 c 3.54726,-2.94397 -1.81329,-4.02297 -20.06499,-4.03881 -20.21079,-0.0175 -24.40329,0.75365 -21.50582,3.95583 2.40423,2.65709 38.38266,2.72891 41.57081,0.083 z M 339.9019,39.0625 c -3.89246,-6.51177 -5.41983,-7.90175 -4.46402,-4.0625 0.42789,1.71875 0.78567,4.39063 0.79506,5.9375 0.0133,2.18595 0.73594,2.8125 3.24401,2.8125 3.22695,0 3.22695,0 0.42495,-4.6875 z m 12.33141,2.81973 c 0.3918,-0.3359 -4.61971,-13.43402 -5.46296,-14.27806 -0.2862,-0.28646 -0.52035,3.26707 -0.52035,7.89673 0,8.15215 0.0886,8.39031 2.8125,7.55305 1.54687,-0.47549 2.97374,-1.00276 3.17081,-1.17172 z m 21.46385,-6.56973 c -0.0529,-8.4375 -0.0529,-8.4375 -3.125,-1.03766 -3.68981,8.88757 -3.66111,7.93785 -0.25966,8.59299 1.54687,0.29794 2.95312,0.61832 3.125,0.71194 0.17187,0.0936 0.28872,-3.62664 0.25966,-8.26727 z m 10.0699,5.625 c 0.01,-1.54687 0.36717,-4.21875 0.79507,-5.9375 0.9558,-3.83925 -0.57157,-2.44927 -4.46403,4.0625 -2.802,4.6875 -2.802,4.6875 0.42495,4.6875 2.50808,0 3.23075,-0.62655 3.24401,-2.8125 z m -20.44678,-1.25 c -0.38541,-1.54687 -1.08078,-5.20312 -1.54527,-8.125 C 361.31051,28.64063 360.51176,26.25 360,26.25 c -0.51176,0 -1.31051,2.39063 -1.77501,5.3125 -0.46449,2.92188 -1.15986,6.57813 -1.54527,8.125 C 356.06206,42.16652 356.45576,42.5 360,42.5 c 3.54424,0 3.93794,-0.33348 3.32028,-2.8125 z M 346.94231,16.14109 c 1.28815,-2.08428 -1.60901,-4.47439 -3.3334,-2.75001 C 342.16651,14.83349 343.06926,17.5 345,17.5 c 0.60635,0 1.48039,-0.61151 1.94231,-1.35891 z M 427.427,70.06472 c -7.74546,-2.35029 -8.677,-3.4872 -8.677,-10.58994 0,-5.81137 -0.42299,-6.9644 -3.22941,-8.80324 -7.44373,-4.87733 -8.03628,-16.89654 -1.05839,-21.46862 3.02865,-1.98445 11.2807,-1.93593 15.8503,0.0932 1.55351,0.68983 2.1875,0.41698 2.1875,-0.94147 0,-1.05206 1.40625,-3.58407 3.125,-5.62669 C 439.12885,18.56387 439.70531,15 436.875,15 435.84375,15 435,14.4375 435,13.75 c 0,-0.6875 0.79687,-1.25 1.77084,-1.25 0.97395,0 2.09895,-0.70312 2.5,-1.5625 0.58332,-1.25 0.875,-1.25 1.45832,0 0.40105,0.85938 1.52605,1.5625 2.5,1.5625 0.97396,0 1.77084,0.5625 1.77084,1.25 0,0.6875 -0.84375,1.25 -1.875,1.25 -2.83031,0 -2.25385,3.56387 1.25,7.72796 1.71875,2.04262 3.125,4.53424 3.125,5.53693 0,1.41507 0.5411,1.53348 2.41782,0.52909 4.48753,-2.40165 12.10092,-1.53753 16.09984,1.82733 6.98034,5.87358 6.04608,12.61269 -2.82881,20.40495 -3.95935,3.47636 -4.43885,4.56394 -4.43885,10.06805 0,6.17069 0,6.17069 -5.84767,8.16319 -6.06014,2.0649 -19.88678,2.50301 -25.47533,0.80722 z m 23.42912,-2.76436 C 454.375,65.85072 454.375,65.85072 450.625,64.94825 442.48655,62.98968 425,63.92529 425,66.31931 c 0,2.41981 20.47762,3.19679 25.85612,0.98105 z M 439.375,61.875 c 5.5,0 11.54687,0.43259 13.4375,0.96132 2.5729,0.71952 3.4375,0.52039 3.4375,-0.79172 0,-0.96416 -1.26563,-2.0922 -2.8125,-2.50674 -4.52119,-1.21163 -25.48036,-0.89979 -28.98112,0.4312 -4.68573,1.78151 -4.03949,3.90429 0.85612,2.81219 2.23438,-0.49844 8.5625,-0.90625 14.0625,-0.90625 z m 16.87421,-6.46556 c 10e-4,-2.45241 -8.84555,-4.59427 -18.74921,-4.53925 -9.92266,0.0551 -16.24973,1.77268 -16.25041,4.41137 -3.3e-4,1.21539 4.15141,1.59344 17.49921,1.59344 12.54859,0 17.49985,-0.41464 17.50041,-1.46556 z M 438.75,44.23247 c 0,-3.6066 -6.28754,-10.92695 -11.09603,-12.91869 -13.07618,-5.41633 -21.76872,8.56836 -10.72533,17.25509 4.40101,3.46183 21.82136,1e-5 21.82136,-4.3364 z m 24.6169,2.95503 c 5.62056,-5.91954 6.07362,-8.67504 2.18605,-13.29517 -5.02891,-5.97652 -12.40673,-5.59602 -19.33775,0.9973 -4.30465,4.09492 -5.07506,5.55806 -4.74013,9.00238 0.37875,3.89501 0.76393,4.18953 7.27493,5.5628 10.23116,2.1579 10.44697,2.12442 14.6169,-2.26731 z M 443.07698,33.04966 c 1.94191,-4.09228 1.95105,-4.6957 0.11362,-7.5 -2.46409,-3.76066 -3.75429,-3.82711 -6.21085,-0.31987 -1.9444,2.77602 -1.5591,7.65459 0.84567,10.70771 1.93899,2.46175 2.98631,1.88583 5.25157,-2.88784 z M 90.52066,68.85417 c -2.830766,-2.83171 3.291978,-6.34587 11.10066,-6.37124 2.88952,-0.009 6.58009,-0.37214 8.20125,-0.80611 2.88276,-0.77169 2.86215,-0.82495 -0.9375,-2.42259 -4.39437,-1.84769 -5.14314,-5.65182 -1.99666,-10.14404 1.33086,-1.90007 1.47773,-2.94989 0.49745,-3.55573 -0.76502,-0.47281 -2.15014,-2.67667 -3.07805,-4.89747 -2.43335,-5.82381 -0.15144,-12.20193 6.44188,-18.0056 3.90972,-3.44147 4.98642,-5.13044 4.18431,-6.56372 C 113.52164,13.56393 116.84522,8.75 120,8.75 c 3.131,0 6.4781,4.81439 5.08176,7.30949 -0.78298,1.39914 0.4185,3.24469 4.54645,6.9836 6.97588,6.31844 8.78163,14.67149 4.44088,20.54265 -2.20115,2.97723 -2.30345,3.71883 -0.79715,5.77881 3.0189,4.1286 2.1581,8.07532 -2.157,9.88968 -3.79967,1.59764 -3.82027,1.6509 -0.9375,2.42259 1.62116,0.43398 5.49427,0.79672 8.60692,0.80611 5.71166,0.0172 11.70833,2.914 10.92113,5.27561 -0.40745,1.22234 -57.992495,2.28836 -59.18483,1.09563 z m 30.01796,-2.71449 c 10.58822,0.005 20.78872,0.39583 22.66778,0.86745 2.14899,0.53936 3.13134,0.3961 2.64789,-0.38614 -2.23025,-3.60861 -46.275918,-3.71995 -52.10429,-0.13171 -1.243009,0.76526 -0.288733,0.89921 2.831159,0.39739 2.588387,-0.41632 13.369241,-0.75247 23.957461,-0.74699 z m 10.93844,-9.61674 C 132.67431,55.32569 130.27334,55 120.25,55 c -7.0125,0 -12.75,0.29938 -12.75,0.66528 0,3.08361 20.99995,3.83477 23.97706,0.85765 z M 131.25,51.5 c 0,-2.6999 -3.65652,-4 -11.25,-4 -7.59348,0 -11.25,1.3001 -11.25,4 0,0.55 5.0625,1 11.25,1 6.1875,0 11.25,-0.45 11.25,-1 z m 0.21407,-8.56874 c 5.45387,-4.93567 1.16413,-16.46516 -7.86296,-21.13326 -9.55834,-4.9428 -22.56913,12.8643 -15.28237,20.91607 2.8567,3.15663 19.72242,3.31489 23.14533,0.21719 z M 118.75,35.625 c 0,-1.03125 -0.84375,-1.875 -1.875,-1.875 -1.03125,0 -1.875,-0.5625 -1.875,-1.25 0,-0.6875 0.84375,-1.25 1.875,-1.25 1.04167,0 1.875,-1.11111 1.875,-2.5 0,-1.375 0.5625,-2.5 1.25,-2.5 0.6875,0 1.25,1.125 1.25,2.5 0,1.38889 0.83333,2.5 1.875,2.5 1.03125,0 1.875,0.5625 1.875,1.25 0,0.6875 -0.84375,1.25 -1.875,1.25 -1.03125,0 -1.875,0.84375 -1.875,1.875 0,1.03125 -0.5625,1.875 -1.25,1.875 -0.6875,0 -1.25,-0.84375 -1.25,-1.875 z m 3.52444,-21.66041 c 0.30022,-2.04034 -0.24311,-2.71459 -2.1875,-2.71459 -1.67521,0 -2.58694,0.80766 -2.58694,2.29167 0,4.75203 4.0842,5.11381 4.77444,0.42292 z M 255,66.25 c 0,-2.91667 0.55555,-3.75 2.5,-3.75 1.74747,0 2.51196,-0.84659 2.53975,-2.8125 0.0219,-1.54687 0.86562,-3.90439 1.875,-5.23891 3.03846,-4.0172 2.54859,-23.41556 -0.66475,-26.32359 -1.76929,-1.60118 -2.5,-3.84996 -2.5,-7.69374 0,-5.3412 0.0703,-5.43126 4.24126,-5.43126 2.6169,0 4.51683,0.71811 4.96078,1.875 0.93177,2.42816 5.31822,2.42816 6.25,0 0.98992,-2.57971 10.606,-2.57971 11.59592,0 0.93178,2.42816 5.31823,2.42816 6.25,0 0.44395,-1.15689 2.34388,-1.875 4.96078,-1.875 4.17093,0 4.24126,0.0901 4.24126,5.43126 0,3.84378 -0.73071,6.09256 -2.5,7.69374 -3.21334,2.90803 -3.70321,22.30639 -0.66475,26.32359 1.00937,1.33452 1.85312,3.69204 1.875,5.23891 0.0278,1.96591 0.79227,2.8125 2.53975,2.8125 1.94445,0 2.5,0.83333 2.5,3.75 0,3.75 0,3.75 -25,3.75 -25,0 -25,0 -25,-3.75 z m 47.5,0 C 302.5,65.46296 294.16666,65 280,65 c -14.16666,0 -22.5,0.46296 -22.5,1.25 0,0.78704 8.33334,1.25 22.5,1.25 14.16666,0 22.5,-0.46296 22.5,-1.25 z m -5,-5.625 c 0,-1.57738 -2.77778,-1.875 -17.5,-1.875 -14.72222,0 -17.5,0.29762 -17.5,1.875 0,1.57738 2.77778,1.875 17.5,1.875 14.72222,0 17.5,-0.29762 17.5,-1.875 z m -2.8125,-5.9375 C 294.31169,53.56005 290.22223,53.125 280,53.125 c -10.22223,0 -14.31169,0.43505 -14.6875,1.5625 -0.39764,1.19292 3.07639,1.5625 14.6875,1.5625 11.61111,0 15.08514,-0.36958 14.6875,-1.5625 z M 293.75,40.625 C 293.75,30 293.75,30 280,30 c -13.75,0 -13.75,0 -13.75,10.625 0,10.625 0,10.625 13.75,10.625 13.75,0 13.75,0 13.75,-10.625 z M 295.625,27.5 c 0.50004,-0.80907 -5.01161,-1.25 -15.625,-1.25 -10.61339,0 -16.12504,0.44093 -15.625,1.25 0.4449,0.71985 7.07173,1.25 15.625,1.25 8.55327,0 15.1801,-0.53015 15.625,-1.25 z m 3.125,-6.875 c 0,-3.43204 -3.01998,-4.3304 -4.20204,-1.25 -0.47491,1.23762 -2.43252,1.875 -5.75874,1.875 -3.64597,0 -5.03922,-0.5184 -5.03922,-1.875 0,-1.25 -1.25,-1.875 -3.75,-1.875 -2.5,0 -3.75,0.625 -3.75,1.875 0,1.3566 -1.39325,1.875 -5.03923,1.875 -3.32621,0 -5.28382,-0.63738 -5.75873,-1.875 -1.18207,-3.0804 -4.20204,-2.18204 -4.20204,1.25 0,3.125 0,3.125 18.75,3.125 18.75,0 18.75,0 18.75,-3.125 z"
     id="path4138"
     inkscape:connector-curvature="0" />
</svg>
